<?xml version="1.0" encoding="UTF-8" standalone="no"?>
<!-- Created with Inkscape (http://www.inkscape.org/) -->

<svg
   xmlns:dc="http://purl.org/dc/elements/1.1/"
   xmlns:cc="http://creativecommons.org/ns#"
   xmlns:rdf="http://www.w3.org/1999/02/22-rdf-syntax-ns#"
   xmlns:svg="http://www.w3.org/2000/svg"
   xmlns="http://www.w3.org/2000/svg"
   xmlns:sodipodi="http://sodipodi.sourceforge.net/DTD/sodipodi-0.dtd"
   xmlns:inkscape="http://www.inkscape.org/namespaces/inkscape"
   width="1920px"
   height="1080px"
   viewBox="0 0 1920 1080"
   version="1.1"
   id="SVGRoot"
   inkscape:version="0.92.4 (5da689c313, 2019-01-14)"
   sodipodi:docname="drawing.svg">
  <defs
     id="defs3833" />
  <sodipodi:namedview
     id="base"
     pagecolor="#ffffff"
     bordercolor="#666666"
     borderopacity="1.0"
     inkscape:pageopacity="0.0"
     inkscape:pageshadow="2"
     inkscape:zoom="0.65996633"
     inkscape:cx="1132.4753"
     inkscape:cy="777.97161"
     inkscape:document-units="px"
     inkscape:current-layer="layer1"
     showgrid="false"
     inkscape:window-width="1920"
     inkscape:window-height="1018"
     inkscape:window-x="-9"
     inkscape:window-y="-9"
     inkscape:window-maximized="1"
     showguides="false"
     inkscape:pagecheckerboard="false" />
  <metadata
     id="metadata3836">
    <rdf:RDF>
      <cc:Work
         rdf:about="">
        <dc:format>image/svg+xml</dc:format>
        <dc:type
           rdf:resource="http://purl.org/dc/dcmitype/StillImage" />
        <dc:title></dc:title>
      </cc:Work>
    </rdf:RDF>
  </metadata>
  <g
     inkscape:label="Layer 1"
     inkscape:groupmode="layer"
     id="layer1">
    <g
       id="g4902">
      <path
         inkscape:connector-curvature="0"
         id="path4715"
         d="M 919.08618,135.90831 C 845.33742,98.713041 829.52203,-50.339035 934.3857,-50.254174 1016.5731,-50.849 1066.881,16.742432 1052.689,95.60754 c 16.6616,52.92369 -101.96364,42.416 -133.60282,40.30077 z"
         style="fill:#f7500b;fill-opacity:1;stroke-width:0.75761443;paint-order:stroke markers fill" />
      <path
         sodipodi:nodetypes="cccc"
         inkscape:connector-curvature="0"
         id="path4876"
         d="m 1449.1164,1081.1974 c 103.0438,-105.92406 238.5741,-174.44452 377.2939,-221.17353 -43.0638,82.58497 5.3357,269.02713 -105.7934,268.98883 -60.4652,-0.8367 -221.4994,-41.6277 -271.5005,-47.8153 z"
         style="opacity:1;fill:#f7500b;fill-opacity:1;stroke-width:0.75761443;paint-order:stroke markers fill" />
      <path
         sodipodi:nodetypes="ccccc"
         inkscape:connector-curvature="0"
         id="path4861"
         d="M 492.52554,1027.0204 C 369.72037,954.44377 207.39023,999.20369 91.13852,912.76462 52.068697,868.69821 -14.079987,745.5608 15.800577,718.56856 195.51333,743.25798 417.64197,856.55196 493.97146,1026.1107 Z"
         style="opacity:1;fill:#f7500b;fill-opacity:1;stroke-width:0.75761443;paint-order:stroke markers fill" />
      <path
         inkscape:connector-curvature="0"
         id="path4684"
         d="m 1325.406,354.93999 c -105.2411,11.99438 -211.8267,-2.65139 -309.0513,-44.952 C 943.46288,296.78892 847.06757,241.59271 877.8861,153.79756 911.28636,92.568107 975.71985,47.225484 1012.9037,-4.9171383 c 253.401,-33.0262657 506.5248,-75.9068577 759.8745,-112.6947717 77.2722,-3.32382 187.3935,-45.26581 243.9773,-24.3818 1.1881,131.01876 2.9983,262.03363 3.3055,393.05895 -83.1565,16.13298 111.6378,-100.31104 34.4452,-41.99832 -89.4141,55.17618 -473.8423,97.81021 -574.4452,124.3013 -50.9744,10.17185 -102.4211,21.63906 -154.655,21.57177 z"
         style="fill:#333333;fill-opacity:1;stroke-width:1.07142854"
         sodipodi:nodetypes="cccccccccc" />
      <path
         inkscape:connector-curvature="0"
         id="path4699"
         d="m -2.9610321,816.61485 c 0.017367,-89.19643 0.034733,-178.39286 0.0521,-267.58929 57.7114301,111.83585 23.5837751,265.57185 132.0092221,351.02537 104.36459,83.07958 258.14022,29.85408 361.28838,117.95427 48.57842,34.8282 89.77412,80.7906 9.34137,66.199 -167.58106,0 -335.16211,0 -502.7431621,0 0.017363,-89.19645 0.034727,-178.3929 0.05209,-267.58935 z"
         style="fill:#333333;fill-opacity:1;stroke-width:1.07142854;paint-order:stroke markers fill" />
      <path
         inkscape:connector-curvature="0"
         id="path4703"
         d="m 1678.6975,1090.7945 c 135.1436,-113.20303 115.1032,-323.0436 250.5597,-435.94572 0.5847,145.35496 0.2521,290.7113 0.3397,436.06692 -83.6331,-0.01 -167.2672,0.4591 -250.8994,-0.1212 z"
         style="fill:#333333;fill-opacity:1;stroke-width:0.53571427;paint-order:stroke markers fill" />
    </g>
    <rect
       style="opacity:1;fill:none;fill-opacity:1;paint-order:stroke markers fill"
       id="rect4906"
       width="1929.5969"
       height="1090.9156"
       x="0"
       y="1.1396869e-06" />
  </g>
</svg>
